# xmcd
#
# Track frame offsets:
#	150
#	13392
#	19550
#	33530
#	38547
#	48299
#	61201
#	68018
#	82230
#	95098
#	114746
#	123543
#	143158
#
# Disc length: 1949 seconds
#
# Revision: 0
# Processed by: cddbd v1.4PL0 Copyright (c) Steve Scherf et al.
# Submitted via: dBpowerAMP V4.0
#
DISCID=b2079b0d
DTITLE=Eli Barsi and Gord Colliar - Second Hand Saddles
DYEAR=1900
DGENRE=
TTITLE0=Moonlight Cowgirl
TTITLE1=Landscape Horses
TTITLE2=Cattle Call
TTITLE3=I Am The Range
TTITLE4=Buckle Bunnies
TTITLE5=I Want To Be A Cowboy's Sweetheart
TTITLE6=Itchy Dink
TTITLE7=Second Hand Saddle
TTITLE8=Penny In The Dust
TTITLE9=When The Coyote Howls
TTITLE10=Headin' East
TTITLE11=Night Rider's Lament
TTITLE12=Thanks
EXTD=
EXTT0=
EXTT1=
EXTT2=
EXTT3=
EXTT4=
EXTT5=
EXTT6=
EXTT7=
EXTT8=
EXTT9=
EXTT10=
EXTT11=
EXTT12=
PLAYORDER=
